#OBJ
#T-FLEX CAD ObjGenerator generate date:5.11.2025 19:7:59
mtllib materials.mtl
v 0.0005 0 0.5
v 0.0005 -0 0
v 0.000469 0.000171 0
v 0.000469 0.000171 0.5
v 0.000383 0.000321 0
v 0.000383 0.000321 0.5
v 0.00025 0.000433 0
v 0.00025 0.000433 0.5
v 0.000086 0.000492 0
v 0.000086 0.000492 0.5
v -0.000086 0.000492 0
v -0.000086 0.000492 0.5
v -0.00025 0.000433 0
v -0.00025 0.000433 0.5
v -0.000383 0.000321 0
v -0.000383 0.000321 0.5
v -0.000469 0.000171 0
v -0.000469 0.000171 0.5
v 0.000469 -0.000171 0.5
v -0.0005 0 0
v -0.0005 0 0.5
v -0.000469 -0.000171 0
v -0.000469 -0.000171 0.5
v -0.000383 -0.000321 0
v -0.000383 -0.000321 0.5
v -0.00025 -0.000433 0
v -0.00025 -0.000433 0.5
v -0.000086 -0.000492 0
v -0.000086 -0.000492 0.5
v 0.000086 -0.000492 0
v 0.000086 -0.000492 0.5
v 0.00025 -0.000433 0
v 0.00025 -0.000433 0.5
v 0.000383 -0.000321 0
v 0.000383 -0.000321 0.5
v 0.000469 -0.000171 0
v -0.0005 0 0.5
v -0.000469 -0.000171 0.5
v 0 0 0.5
v 0.000469 0.000171 0.5
v 0.000383 0.000321 0.5
v 0.00025 0.000433 0.5
v 0.000086 0.000492 0.5
v -0.000086 0.000492 0.5
v -0.00025 0.000433 0.5
v -0.000383 0.000321 0.5
v -0.000469 0.000171 0.5
v -0.000383 -0.000321 0.5
v -0.00025 -0.000433 0.5
v -0.000086 -0.000492 0.5
v 0.000086 -0.000492 0.5
v 0.00025 -0.000433 0.5
v 0.000383 -0.000321 0.5
v 0.000469 -0.000171 0.5
v 0.0005 0 0.5
v -0.000469 0.000171 0
v -0.000383 0.000321 0
v 0 0 0
v 0.0005 -0 0
v 0.000469 -0.000171 0
v 0.000469 0.000171 0
v 0.000383 0.000321 0
v 0.00025 0.000433 0
v 0.000086 0.000492 0
v -0.000086 0.000492 0
v -0.00025 0.000433 0
v 0.000383 -0.000321 0
v -0.0005 0 0
v -0.000469 -0.000171 0
v -0.000383 -0.000321 0
v -0.00025 -0.000433 0
v -0.000086 -0.000492 0
v 0.000086 -0.000492 0
v 0.00025 -0.000433 0
vt 0 0.5
vt -0 0
vt 0.000171 0
vt 0.000171 0.5
vt 0.000321 0
vt 0.000321 0.5
vt -0.00025 0
vt -0.00025 0.5
vt -0.000086 0
vt -0.000086 0.5
vt 0.000086 0
vt 0.000086 0.5
vt 0.00025 0
vt 0.00025 0.5
vt -0.000321 0
vt -0.000321 0.5
vt -0.000171 0
vt -0.000171 0.5
vt -0.000171 0.5
vt -0 0
vt -0 0.5
vt 0.000171 0
vt 0.000171 0.5
vt 0.000321 0
vt 0.000321 0.5
vt -0.00025 0
vt -0.00025 0.5
vt -0.000086 0
vt -0.000086 0.5
vt 0.000086 0
vt 0.000086 0.5
vt 0.00025 0
vt 0.00025 0.5
vt -0.000321 0
vt -0.000321 0.5
vt -0.000171 0
vt 0.0005 -0
vt 0.000469 0.000171
vt 0 0
vt -0.000469 -0.000171
vt -0.000383 -0.000321
vt -0.00025 -0.000433
vt -0.000086 -0.000492
vt 0.000086 -0.000492
vt 0.00025 -0.000433
vt 0.000383 -0.000321
vt 0.000469 -0.000171
vt 0.000383 0.000321
vt 0.00025 0.000433
vt 0.000086 0.000492
vt -0.000086 0.000492
vt -0.00025 0.000433
vt -0.000383 0.000321
vt -0.000469 0.000171
vt -0.0005 0
vt 0.000469 0.000171
vt 0.000383 0.000321
vt 0 0
vt -0.0005 -0
vt -0.000469 -0.000171
vt -0.000469 0.000171
vt -0.000383 0.000321
vt -0.00025 0.000433
vt -0.000086 0.000492
vt 0.000086 0.000492
vt 0.00025 0.000433
vt -0.000383 -0.000321
vt 0.0005 0
vt 0.000469 -0.000171
vt 0.000383 -0.000321
vt 0.00025 -0.000433
vt 0.000086 -0.000492
vt -0.000086 -0.000492
vt -0.00025 -0.000433
vn 1 0 0
vn 1 0 0
vn 0.939692 0.34202 0
vn 0.939692 0.34202 0
vn 0.766044 0.642787 0
vn 0.766044 0.642787 0
vn 0.5 0.866025 0
vn 0.5 0.866025 0
vn 0.173648 0.984807 0
vn 0.173648 0.984807 0
vn -0.173648 0.984807 0
vn -0.173648 0.984807 0
vn -0.5 0.866025 0
vn -0.5 0.866025 0
vn -0.766044 0.642787 0
vn -0.766044 0.642787 0
vn -0.939692 0.34202 0
vn -0.939692 0.34202 0
vn 0.939692 -0.34202 0
vn -1 0 0
vn -1 0 0
vn -0.939692 -0.34202 0
vn -0.939692 -0.34202 0
vn -0.766044 -0.642787 0
vn -0.766044 -0.642787 0
vn -0.5 -0.866025 0
vn -0.5 -0.866025 0
vn -0.173648 -0.984807 0
vn -0.173648 -0.984807 0
vn 0.173648 -0.984807 0
vn 0.173648 -0.984807 0
vn 0.5 -0.866025 0
vn 0.5 -0.866025 0
vn 0.766044 -0.642787 0
vn 0.766044 -0.642787 0
vn 0.939692 -0.34202 0
vn 0 0 1
vn 0 0 1
vn 0 0 1
vn 0 0 1
vn 0 0 1
vn 0 0 1
vn 0 0 1
vn 0 0 1
vn 0 0 1
vn 0 0 1
vn 0 0 1
vn 0 0 1
vn 0 0 1
vn 0 0 1
vn 0 0 1
vn 0 0 1
vn 0 0 1
vn 0 0 1
vn 0 0 1
vn 0 0 -1
vn 0 0 -1
vn 0 0 -1
vn 0 0 -1
vn 0 0 -1
vn 0 0 -1
vn 0 0 -1
vn 0 0 -1
vn 0 0 -1
vn 0 0 -1
vn 0 0 -1
vn 0 0 -1
vn 0 0 -1
vn 0 0 -1
vn 0 0 -1
vn 0 0 -1
vn 0 0 -1
vn 0 0 -1
vn 0 0 -1
usemtl source
f 1/1/1 2/2/2 3/3/3
f 3/3/3 4/4/4 1/1/1
f 5/5/5 6/6/6 4/4/4
f 7/7/7 8/8/8 6/6/6
f 9/9/9 10/10/10 8/8/8
f 11/11/11 12/12/12 10/10/10
f 13/13/13 14/14/14 12/12/12
f 15/15/15 16/16/16 14/14/14
f 17/17/17 18/18/18 16/16/16
f 2/2/2 1/1/1 19/19/19
f 20/20/20 21/21/21 18/18/18
f 22/22/22 23/23/23 21/21/21
f 24/24/24 25/25/25 23/23/23
f 26/26/26 27/27/27 25/25/25
f 28/28/28 29/29/29 27/27/27
f 30/30/30 31/31/31 29/29/29
f 32/32/32 33/33/33 31/31/31
f 34/34/34 35/35/35 33/33/33
f 36/36/36 19/19/19 35/35/35
f 4/4/4 3/3/3 5/5/5
f 6/6/6 5/5/5 7/7/7
f 8/8/8 7/7/7 9/9/9
f 10/10/10 9/9/9 11/11/11
f 12/12/12 11/11/11 13/13/13
f 14/14/14 13/13/13 15/15/15
f 16/16/16 15/15/15 17/17/17
f 18/18/18 17/17/17 20/20/20
f 21/21/21 20/20/20 22/22/22
f 23/23/23 22/22/22 24/24/24
f 25/25/25 24/24/24 26/26/26
f 27/27/27 26/26/26 28/28/28
f 29/29/29 28/28/28 30/30/30
f 31/31/31 30/30/30 32/32/32
f 33/33/33 32/32/32 34/34/34
f 35/35/35 34/34/34 36/36/36
f 19/19/19 36/36/36 2/2/2
f 37/37/37 38/38/38 39/39/39
f 39/39/39 40/40/40 41/41/41
f 41/41/41 42/42/42 39/39/39
f 42/42/42 43/43/43 39/39/39
f 43/43/43 44/44/44 39/39/39
f 44/44/44 45/45/45 39/39/39
f 45/45/45 46/46/46 39/39/39
f 46/46/46 47/47/47 39/39/39
f 47/47/47 37/37/37 39/39/39
f 38/38/38 48/48/48 39/39/39
f 48/48/48 49/49/49 39/39/39
f 49/49/49 50/50/50 39/39/39
f 50/50/50 51/51/51 39/39/39
f 51/51/51 52/52/52 39/39/39
f 52/52/52 53/53/53 39/39/39
f 53/53/53 54/54/54 39/39/39
f 54/54/54 55/55/55 39/39/39
f 55/55/55 40/40/40 39/39/39
f 56/56/56 57/57/57 58/58/58
f 59/59/59 60/60/60 58/58/58
f 61/61/61 59/59/59 58/58/58
f 62/62/62 61/61/61 58/58/58
f 63/63/63 62/62/62 58/58/58
f 64/64/64 63/63/63 58/58/58
f 65/65/65 64/64/64 58/58/58
f 66/66/66 65/65/65 58/58/58
f 58/58/58 60/60/60 67/67/67
f 57/57/57 66/66/66 58/58/58
f 68/68/68 56/56/56 58/58/58
f 69/69/69 68/68/68 58/58/58
f 70/70/70 69/69/69 58/58/58
f 71/71/71 70/70/70 58/58/58
f 72/72/72 71/71/71 58/58/58
f 73/73/73 72/72/72 58/58/58
f 74/74/74 73/73/73 58/58/58
f 67/67/67 74/74/74 58/58/58
v 0.05 0 0.5
v 0.05 -0 0
v 0.046984 0.017101 0
v 0.046984 0.017101 0.5
v 0.038302 0.032139 0
v 0.038302 0.032139 0.5
v 0.025 0.043301 0
v 0.025 0.043301 0.5
v 0.008682 0.04924 0
v 0.008682 0.04924 0.5
v -0.008682 0.04924 0
v -0.008682 0.04924 0.5
v -0.025 0.043301 0
v -0.025 0.043301 0.5
v -0.038302 0.032139 0
v -0.038302 0.032139 0.5
v -0.046984 0.017101 0
v -0.046984 0.017101 0.5
v 0.046984 -0.017101 0.5
v -0.05 0 0
v -0.05 0 0.5
v -0.046984 -0.017101 0
v -0.046984 -0.017101 0.5
v -0.038302 -0.032139 0
v -0.038302 -0.032139 0.5
v -0.025 -0.043301 0
v -0.025 -0.043301 0.5
v -0.008682 -0.04924 0
v -0.008682 -0.04924 0.5
v 0.008682 -0.04924 0
v 0.008682 -0.04924 0.5
v 0.025 -0.043301 0
v 0.025 -0.043301 0.5
v 0.038302 -0.032139 0
v 0.038302 -0.032139 0.5
v 0.046984 -0.017101 0
v -0.05 0 0.5
v -0.046984 -0.017101 0.5
v 0 0 0.5
v 0.046984 0.017101 0.5
v 0.038302 0.032139 0.5
v 0.025 0.043301 0.5
v 0.008682 0.04924 0.5
v -0.008682 0.04924 0.5
v -0.025 0.043301 0.5
v -0.038302 0.032139 0.5
v -0.046984 0.017101 0.5
v -0.038302 -0.032139 0.5
v -0.025 -0.043301 0.5
v -0.008682 -0.04924 0.5
v 0.008682 -0.04924 0.5
v 0.025 -0.043301 0.5
v 0.038302 -0.032139 0.5
v 0.046984 -0.017101 0.5
v 0.05 0 0.5
v -0.046984 0.017101 0
v -0.038302 0.032139 0
v 0 0 0
v 0.05 -0 0
v 0.046984 -0.017101 0
v 0.046984 0.017101 0
v 0.038302 0.032139 0
v 0.025 0.043301 0
v 0.008682 0.04924 0
v -0.008682 0.04924 0
v -0.025 0.043301 0
v 0.038302 -0.032139 0
v -0.05 0 0
v -0.046984 -0.017101 0
v -0.038302 -0.032139 0
v -0.025 -0.043301 0
v -0.008682 -0.04924 0
v 0.008682 -0.04924 0
v 0.025 -0.043301 0
vt 0 0.5
vt -0 0
vt 0.017101 0
vt 0.017101 0.5
vt 0.032139 0
vt 0.032139 0.5
vt -0.025 0
vt -0.025 0.5
vt -0.008682 0
vt -0.008682 0.5
vt 0.008682 0
vt 0.008682 0.5
vt 0.025 0
vt 0.025 0.5
vt -0.032139 0
vt -0.032139 0.5
vt -0.017101 0
vt -0.017101 0.5
vt -0.017101 0.5
vt -0 0
vt -0 0.5
vt 0.017101 0
vt 0.017101 0.5
vt 0.032139 0
vt 0.032139 0.5
vt -0.025 0
vt -0.025 0.5
vt -0.008682 0
vt -0.008682 0.5
vt 0.008682 0
vt 0.008682 0.5
vt 0.025 0
vt 0.025 0.5
vt -0.032139 0
vt -0.032139 0.5
vt -0.017101 0
vt 0.05 -0
vt 0.046984 0.017101
vt 0 0
vt -0.046984 -0.017101
vt -0.038302 -0.032139
vt -0.025 -0.043301
vt -0.008682 -0.04924
vt 0.008682 -0.04924
vt 0.025 -0.043301
vt 0.038302 -0.032139
vt 0.046984 -0.017101
vt 0.038302 0.032139
vt 0.025 0.043301
vt 0.008682 0.04924
vt -0.008682 0.04924
vt -0.025 0.043301
vt -0.038302 0.032139
vt -0.046984 0.017101
vt -0.05 0
vt 0.046984 0.017101
vt 0.038302 0.032139
vt 0 0
vt -0.05 -0
vt -0.046984 -0.017101
vt -0.046984 0.017101
vt -0.038302 0.032139
vt -0.025 0.043301
vt -0.008682 0.04924
vt 0.008682 0.04924
vt 0.025 0.043301
vt -0.038302 -0.032139
vt 0.05 0
vt 0.046984 -0.017101
vt 0.038302 -0.032139
vt 0.025 -0.043301
vt 0.008682 -0.04924
vt -0.008682 -0.04924
vt -0.025 -0.043301
vn 1 0 0
vn 1 0 0
vn 0.939692 0.34202 0
vn 0.939692 0.34202 0
vn 0.766044 0.642787 0
vn 0.766044 0.642787 0
vn 0.5 0.866025 0
vn 0.5 0.866025 0
vn 0.173648 0.984807 0
vn 0.173648 0.984807 0
vn -0.173648 0.984807 0
vn -0.173648 0.984807 0
vn -0.5 0.866025 0
vn -0.5 0.866025 0
vn -0.766044 0.642787 0
vn -0.766044 0.642787 0
vn -0.939692 0.34202 0
vn -0.939692 0.34202 0
vn 0.939692 -0.34202 0
vn -1 0 0
vn -1 0 0
vn -0.939692 -0.34202 0
vn -0.939692 -0.34202 0
vn -0.766044 -0.642787 0
vn -0.766044 -0.642787 0
vn -0.5 -0.866025 0
vn -0.5 -0.866025 0
vn -0.173648 -0.984807 0
vn -0.173648 -0.984807 0
vn 0.173648 -0.984807 0
vn 0.173648 -0.984807 0
vn 0.5 -0.866025 0
vn 0.5 -0.866025 0
vn 0.766044 -0.642787 0
vn 0.766044 -0.642787 0
vn 0.939692 -0.34202 0
vn 0 0 1
vn 0 0 1
vn 0 0 1
vn 0 0 1
vn 0 0 1
vn 0 0 1
vn 0 0 1
vn 0 0 1
vn 0 0 1
vn 0 0 1
vn 0 0 1
vn 0 0 1
vn 0 0 1
vn 0 0 1
vn 0 0 1
vn 0 0 1
vn 0 0 1
vn 0 0 1
vn 0 0 1
vn 0 0 -1
vn 0 0 -1
vn 0 0 -1
vn 0 0 -1
vn 0 0 -1
vn 0 0 -1
vn 0 0 -1
vn 0 0 -1
vn 0 0 -1
vn 0 0 -1
vn 0 0 -1
vn 0 0 -1
vn 0 0 -1
vn 0 0 -1
vn 0 0 -1
vn 0 0 -1
vn 0 0 -1
vn 0 0 -1
vn 0 0 -1
usemtl environment
f 75/75/75 76/76/76 77/77/77
f 77/77/77 78/78/78 75/75/75
f 79/79/79 80/80/80 78/78/78
f 81/81/81 82/82/82 80/80/80
f 83/83/83 84/84/84 82/82/82
f 85/85/85 86/86/86 84/84/84
f 87/87/87 88/88/88 86/86/86
f 89/89/89 90/90/90 88/88/88
f 91/91/91 92/92/92 90/90/90
f 76/76/76 75/75/75 93/93/93
f 94/94/94 95/95/95 92/92/92
f 96/96/96 97/97/97 95/95/95
f 98/98/98 99/99/99 97/97/97
f 100/100/100 101/101/101 99/99/99
f 102/102/102 103/103/103 101/101/101
f 104/104/104 105/105/105 103/103/103
f 106/106/106 107/107/107 105/105/105
f 108/108/108 109/109/109 107/107/107
f 110/110/110 93/93/93 109/109/109
f 78/78/78 77/77/77 79/79/79
f 80/80/80 79/79/79 81/81/81
f 82/82/82 81/81/81 83/83/83
f 84/84/84 83/83/83 85/85/85
f 86/86/86 85/85/85 87/87/87
f 88/88/88 87/87/87 89/89/89
f 90/90/90 89/89/89 91/91/91
f 92/92/92 91/91/91 94/94/94
f 95/95/95 94/94/94 96/96/96
f 97/97/97 96/96/96 98/98/98
f 99/99/99 98/98/98 100/100/100
f 101/101/101 100/100/100 102/102/102
f 103/103/103 102/102/102 104/104/104
f 105/105/105 104/104/104 106/106/106
f 107/107/107 106/106/106 108/108/108
f 109/109/109 108/108/108 110/110/110
f 93/93/93 110/110/110 76/76/76
f 111/111/111 112/112/112 113/113/113
f 113/113/113 114/114/114 115/115/115
f 115/115/115 116/116/116 113/113/113
f 116/116/116 117/117/117 113/113/113
f 117/117/117 118/118/118 113/113/113
f 118/118/118 119/119/119 113/113/113
f 119/119/119 120/120/120 113/113/113
f 120/120/120 121/121/121 113/113/113
f 121/121/121 111/111/111 113/113/113
f 112/112/112 122/122/122 113/113/113
f 122/122/122 123/123/123 113/113/113
f 123/123/123 124/124/124 113/113/113
f 124/124/124 125/125/125 113/113/113
f 125/125/125 126/126/126 113/113/113
f 126/126/126 127/127/127 113/113/113
f 127/127/127 128/128/128 113/113/113
f 128/128/128 129/129/129 113/113/113
f 129/129/129 114/114/114 113/113/113
f 130/130/130 131/131/131 132/132/132
f 133/133/133 134/134/134 132/132/132
f 135/135/135 133/133/133 132/132/132
f 136/136/136 135/135/135 132/132/132
f 137/137/137 136/136/136 132/132/132
f 138/138/138 137/137/137 132/132/132
f 139/139/139 138/138/138 132/132/132
f 140/140/140 139/139/139 132/132/132
f 132/132/132 134/134/134 141/141/141
f 131/131/131 140/140/140 132/132/132
f 142/142/142 130/130/130 132/132/132
f 143/143/143 142/142/142 132/132/132
f 144/144/144 143/143/143 132/132/132
f 145/145/145 144/144/144 132/132/132
f 146/146/146 145/145/145 132/132/132
f 147/147/147 146/146/146 132/132/132
f 148/148/148 147/147/147 132/132/132
f 141/141/141 148/148/148 132/132/132
